<svg viewBox="0 0 400 420" width="26" height="26" style="display: inline;">
  <g id="svgg">
    <path id="path0" d="M170.585 24.000 C 170.980 24.825,171.847 26.175,172.511 27.000 C 173.175 27.825,173.967 29.400,174.271 30.500 C 174.576 31.600,175.799 36.100,176.989 40.500 C 178.179 44.900,180.022 49.909,181.084 51.631 C 184.078 56.483,193.636 85.408,195.919 96.523 C 197.046 102.010,198.659 109.650,199.504 113.500 C 201.147 120.991,202.743 137.932,203.668 157.703 C 204.145 167.920,204.544 170.183,206.119 171.608 C 207.154 172.544,208.000 173.953,208.000 174.738 C 208.000 175.524,208.563 175.981,209.250 175.754 C 210.104 175.472,210.664 171.882,211.018 164.420 C 211.304 158.414,212.075 152.548,212.732 151.383 C 222.435 134.202,249.038 132.841,277.274 148.081 C 288.035 153.890,291.086 157.287,295.069 167.895 C 302.385 187.383,298.633 219.689,286.796 239.129 C 285.246 241.675,283.148 246.175,282.134 249.129 C 278.991 258.284,277.349 263.244,275.090 270.405 C 273.892 274.202,271.864 279.602,270.583 282.405 C 266.914 290.431,266.887 290.744,269.531 294.641 C 270.889 296.642,272.000 298.929,272.000 299.723 C 272.000 301.457,274.032 300.956,275.171 298.940 C 282.010 286.836,286.064 280.551,289.965 276.000 C 298.741 265.764,307.984 252.975,311.125 246.723 C 312.845 243.300,318.831 233.525,324.429 225.000 C 342.828 196.978,353.000 174.590,353.000 162.116 C 353.000 157.784,347.051 133.047,344.669 127.472 C 339.978 116.497,325.833 105.302,310.000 100.035 C 301.390 97.170,285.769 93.000,283.649 93.000 C 282.368 93.000,277.760 92.083,273.410 90.963 C 269.059 89.842,261.900 88.732,257.500 88.496 C 207.114 85.790,207.362 85.876,194.280 66.460 C 192.042 63.138,189.483 59.816,188.594 59.078 C 186.453 57.301,183.959 51.498,180.552 40.367 C 178.408 33.363,176.837 30.217,173.811 26.867 C 171.641 24.465,170.189 23.175,170.585 24.000 M128.500 169.000 C 127.505 170.100,125.929 171.000,124.998 171.000 C 124.067 171.000,120.468 173.700,117.000 177.000 C 113.532 180.300,110.266 183.000,109.742 183.000 C 109.219 183.000,106.761 184.369,104.281 186.043 C 101.801 187.717,97.052 190.459,93.729 192.137 C 87.700 195.180,70.960 208.456,65.750 214.326 C 60.270 220.500,63.275 222.496,72.092 218.539 C 79.933 215.020,91.319 213.980,95.876 216.365 C 97.594 217.264,100.340 218.703,101.979 219.563 C 103.617 220.422,106.317 222.775,107.979 224.791 L 111.000 228.456 111.000 262.054 C 111.000 317.070,114.997 340.316,126.914 354.600 C 128.336 356.306,131.040 359.611,132.923 361.946 C 142.181 373.431,160.108 381.701,174.388 381.073 C 196.400 380.107,217.018 359.114,216.986 337.701 C 216.963 321.688,214.321 319.182,210.975 332.000 C 209.359 338.192,196.398 349.519,189.802 350.504 C 179.238 352.082,167.619 340.811,165.569 327.000 C 163.041 309.960,162.034 293.666,161.986 269.000 C 161.883 215.610,159.141 186.950,153.353 178.748 C 151.509 176.134,149.983 173.659,149.962 173.248 C 149.708 168.244,132.301 164.799,128.500 169.000 " stroke="none" fill="#000000" fill-rule="evenodd">
    </path>
  </g>
</svg>
